<svg width="50" height="50" viewBox="0 0 50 50" fill="none" xmlns="http://www.w3.org/2000/svg">
<rect width="50" height="50" rx="8" fill="url(#paint0_linear_2415_13190)"/>
<path d="M16.5182 23.3058C16.1301 22.2318 15.9361 21.6948 16.0188 21.3506C16.1093 20.9743 16.377 20.6808 16.7191 20.583C17.0319 20.4935 17.5185 20.7097 18.4917 21.1423C19.3525 21.5249 19.7829 21.7162 20.1873 21.7055C20.6326 21.6938 21.0609 21.5152 21.4016 21.1993C21.711 20.9124 21.9186 20.4551 22.3337 19.5406L23.2486 17.5253C24.0128 15.8418 24.3949 15 25 15C25.6051 15 25.9872 15.8418 26.7514 17.5253L27.6663 19.5406C28.0814 20.4551 28.289 20.9124 28.5984 21.1993C28.9391 21.5152 29.3674 21.6938 29.8127 21.7055C30.2171 21.7162 30.6475 21.5249 31.5083 21.1423C32.4815 20.7097 32.9681 20.4935 33.2809 20.583C33.623 20.6808 33.8907 20.9743 33.9812 21.3506C34.0639 21.6948 33.8699 22.2318 33.4818 23.3057L31.8138 27.9222C31.1002 29.897 30.7435 30.8844 29.9968 31.4422C29.2502 32 28.2854 32 26.3558 32H23.6442C21.7146 32 20.7498 32 20.0032 31.4422C19.2565 30.8844 18.8998 29.897 18.1862 27.9222L16.5182 23.3058Z" stroke="white" stroke-width="2"/>
<path d="M25 27H25.009" stroke="white" stroke-width="2" stroke-linecap="round" stroke-linejoin="round"/>
<path d="M20 35H30" stroke="white" stroke-width="2" stroke-linecap="round"/>
<defs>
<linearGradient id="paint0_linear_2415_13190" x1="25" y1="0" x2="25" y2="64.2308" gradientUnits="userSpaceOnUse">
<stop stop-color="#01D4A1"/>
<stop offset="1" stop-color="#5601C6"/>
</linearGradient>
</defs>
</svg>
